:SAMPLES-PER-SECOND 30
:FULLY-SPECIFIED
:DEGREES
342
root  38.3289 37.7056 -13.7723 -25.7269 -74.9387 23.2632
RightUpLeg  23.8903 -17.1747 -11.7168
RightLeg  20.3524 9.40853 4.47643
RightFoot  -17.9154 0.102374 4.10161
RightToes  0.00048216 0.542163 -0.142577
Spine  12.9238 8.93782 13.516
Spine1  8.35662 15.1942 -16.2141
HEad  -1.81389 -18.0985 5.14996
LeftShoulder1  7.69909 -12.0146 -43.1423
LeftArm  -27.0286 42.676 -21.6714
LeftForeArm  24.4692 -75.255 -48.728
LeftHand  -0.25398 0.0180481 5.50724
RightShoulder  5.95858 11.7791 33.0394
RightArm  54.8991 29.3331 70.9184
RightForeArm  -37.9542 32.3735 8.88323
RightHand  0.147489 -8.41239 -7.56938
LeftUpLeg  -23.2815 8.74058 -15.2593
LeftLeg  18.2669 4.21135 2.07897
LeftFoot  4.18537 -1.26774 9.17076
LeftToes  1.06248e-005 4.65856e-005 -8.18499e-006
343
root  36.7142 37.7142 -13.6035 -29.2929 -75.2591 26.6845
RightUpLeg  21.1987 -16.163 -12.9014
RightLeg  28.9202 10.2947 5.74456
RightFoot  -10.4983 -0.156969 8.816
RightToes  0.00048216 0.542163 -0.142577
Spine  13.4328 9.08784 11.82
Spine1  7.98976 15.2817 -16.6022
HEad  -1.61391 -18.0622 6.27421
LeftShoulder1  7.63403 -11.9212 -43.0295
LeftArm  -26.7275 43.2894 -21.3209
LeftForeArm  22.0021 -74.7621 -46.696
LeftHand  -0.25398 0.0180481 5.50724
RightShoulder  6.1197 11.933 33.6913
RightArm  54.9474 28.5911 70.7371
RightForeArm  -36.6946 32.3803 8.84393
RightHand  0.115587 -7.92013 -7.46098
LeftUpLeg  -22.824 8.25981 -14.9464
LeftLeg  22.911 5.69483 2.95327
LeftFoot  1.35238 -1.13994 10.0663
LeftToes  1.06248e-005 4.65856e-005 -8.18499e-006
344
root  35.2799 37.8349 -13.4428 -32.7819 -75.3454 30.3912
RightUpLeg  14.8317 -13.4981 -13.0845
RightLeg  40.1241 8.16758 7.02815
RightFoot  1.83854 -1.3444 11.815
RightToes  0.00048216 0.542163 -0.142577
Spine  13.8401 9.15727 10.394
Spine1  8.13398 15.4361 -17.2533
HEad  -1.48326 -18.2035 6.85208
LeftShoulder1  7.70845 -12.0749 -43.0204
LeftArm  -26.8404 43.2602 -21.5339
LeftForeArm  19.0604 -74.0507 -43.9793
LeftHand  -0.25398 0.0180481 5.50724
RightShoulder  6.21754 12.1283 33.82
RightArm  54.6694 28.2819 70.5644
RightForeArm  -35.5777 32.4226 8.81818
RightHand  0.104735 -7.89797 -7.05705
LeftUpLeg  -21.6527 9.45584 -15.0754
LeftLeg  25.3176 5.26236 3.04339
LeftFoot  -2.66014 -0.622117 8.38739
LeftToes  1.06248e-005 4.65856e-005 -8.18499e-006
345
root  33.9824 37.9927 -13.2842 -37.8629 -75.4306 35.8137
RightUpLeg  7.19822 -11.2664 -13.8064
RightLeg  50.7063 5.38163 6.62126
RightFoot  11.9698 -2.42109 12.1827
RightToes  0.00048216 0.542163 -0.142577
Spine  14.0957 9.33341 8.70494
Spine1  8.7534 15.6363 -17.7585
HEad  -0.892343 -18.0305 6.70541
LeftShoulder1  7.75551 -12.1949 -42.9482
LeftArm  -26.9191 43.1657 -22.2062
LeftForeArm  18.0302 -73.701 -42.7088
LeftHand  -0.25398 0.0180481 5.50724
RightShoulder  6.3009 12.3231 33.8549
RightArm  54.7212 28.4887 70.2602
RightForeArm  -35.1692 32.3396 8.78071
RightHand  0.109202 -8.21159 -6.54993
LeftUpLeg  -19.7066 11.4332 -15.6542
LeftLeg  25.5158 4.09371 2.47023
LeftFoot  -5.27156 -0.341452 7.08115
LeftToes  1.06248e-005 4.65856e-005 -8.18499e-006
346
root  32.6497 38.2892 -13.1014 -40.2336 -75.5614 38.1287
RightUpLeg  0.396214 -10.4555 -14.2529
RightLeg  58.6329 2.38615 3.75451
RightFoot  14.2686 -2.21045 10.0918
RightToes  0.00048216 0.542163 -0.142577
Spine  14.321 9.19234 7.89011
Spine1  8.96636 15.4228 -17.8475
HEad  0.384743 -17.6099 6.10929
LeftShoulder1  7.72742 -12.193 -42.7883
LeftArm  -26.0465 43.1458 -22.7095
LeftForeArm  18.2298 -73.6414 -42.4141
LeftHand  -0.25398 0.0180481 5.50724
RightShoulder  6.4073 12.3973 34.3339
RightArm  54.66 28.7885 69.5992
RightForeArm  -34.9663 31.8257 8.6301
RightHand  0.103596 -8.22273 -6.31319
LeftUpLeg  -16.5943 13.3046 -15.3699
LeftLeg  24.2552 3.03499 1.84392
LeftFoot  -6.62007 -0.228459 6.51126
LeftToes  1.06248e-005 4.65856e-005 -8.18499e-006
